<?xml version="1.0"?>
<svg width="24" height="24" xmlns="http://www.w3.org/2000/svg" xmlns:svg="http://www.w3.org/2000/svg">
 <title>LeetCode</title>
 <g class="layer">
  <title>Layer 1</title>
  <path d="m13.18,0.3a1.37,1.33 0 0 0 -0.96,0.43l-5.4,5.62l-3.86,4a5.27,5.12 0 0 0 -1.21,2.05a5.35,5.19 0 0 0 -0.12,0.5a5.53,5.37 0 0 0 0.06,2.29a5.83,5.66 0 0 0 0.35,0.99a5.94,5.77 0 0 0 1.27,1.77l4.28,4.07l0.04,0.04c2.24,2.1 5.85,2.07 8.06,-0.08l2.4,-2.32c0.54,-0.52 0.54,-1.37 0,-1.89a1.38,1.34 0 0 0 -1.95,-0.01l-2.4,2.32a3.02,2.93 0 0 1 -4.2,0.04l-0.02,-0.02l-4.28,-4.07c-0.65,-0.62 -0.97,-1.43 -0.95,-2.19a2.68,2.6 0 0 1 0.07,-0.5a2.54,2.47 0 0 1 0.62,-1.14l3.85,-4.01c1.06,-1.1 3.2,-1.23 4.43,-0.26l3.5,2.75c0.59,0.47 1.46,0.37 1.94,-0.2a1.38,1.34 0 0 0 -0.21,-1.88l-3.5,-2.75c-0.8,-0.63 -1.76,-1.02 -2.77,-1.17l2.02,-2.09a1.38,1.34 0 0 0 -1.06,-2.26zm-2.86,12.44a1.38,1.34 0 0 0 -1.38,1.35a1.38,1.34 0 0 0 1.38,1.34l10.17,0a1.38,1.34 0 0 0 1.38,-1.34a1.38,1.34 0 0 0 -1.38,-1.35l-10.17,0z" fill="#7f7f7f" id="svg_1"/>
 </g>
</svg>